<!DOCTYPE svg PUBLIC "-//W3C//DTD SVG 1.1//EN" "http://www.w3.org/Graphics/SVG/1.1/DTD/svg11.dtd">
<!-- Uploaded to: SVG Repo, www.svgrepo.com, Transformed by: SVG Repo Mixer Tools -->
<svg height="800px" width="800px" version="1.1" id="Layer_1" xmlns="http://www.w3.org/2000/svg" xmlns:xlink="http://www.w3.org/1999/xlink" viewBox="0 0 511.686 511.686" xml:space="preserve" fill="#000000" stroke="#000000">
<g id="SVGRepo_bgCarrier" stroke-width="0"/>
<g id="SVGRepo_tracerCarrier" stroke-linecap="round" stroke-linejoin="round"/>
<g id="SVGRepo_iconCarrier"> <path style="fill:#EAC6BB;" d="M392.661,275.677c0,88.303-91.254,195.203-138.349,195.203c-47.079,0-138.333-106.9-138.333-195.203 c0-88.318,61.944-124.592,138.333-124.592C330.717,151.085,392.661,187.359,392.661,275.677z"/> <path style="fill:#204a87;" d="M218.539,321.648c0,5.887-4.778,10.649-10.665,10.649s-10.665-4.763-10.665-10.649 c0-5.888,4.778-10.665,10.665-10.665S218.539,315.76,218.539,321.648z"/> <path style="fill:#656D78;" d="M233.951,312.122l0.016-0.016l-42.645-21.314l0,0c-1.437-0.718-3.061-1.124-4.763-1.124 c-5.887,0-10.665,4.762-10.665,10.649c0,4.185,2.405,7.776,5.902,9.524l-0.016,0.016l42.645,21.314l0,0 c1.437,0.719,3.061,1.125,4.763,1.125c5.887,0,10.665-4.763,10.665-10.649C239.853,317.463,237.448,313.871,233.951,312.122z"/> <path style="fill:#204a87;" d="M293.148,321.648c0,5.887,4.777,10.649,10.664,10.649c5.888,0,10.666-4.763,10.666-10.649 c0-5.888-4.778-10.665-10.666-10.665C297.925,310.983,293.148,315.76,293.148,321.648z"/> <path style="fill:#656D78;" d="M335.792,300.318c0-5.888-4.778-10.649-10.666-10.649c-1.701,0-3.325,0.406-4.762,1.124l0,0 l-42.645,21.314l0.016,0.016c-3.498,1.749-5.902,5.341-5.902,9.525c0,5.887,4.777,10.649,10.664,10.649 c1.703,0,3.326-0.406,4.764-1.125l0,0l42.645-21.314l-0.016-0.016C333.388,308.094,335.792,304.502,335.792,300.318z"/> <path style="fill:#000000;" d="M158.624,394.085c30.137,44.128,69.658,76.795,95.688,76.795c26.046,0,65.599-32.683,95.735-76.842 l-95.735-19.097L158.624,394.085z"/> <g> <path style="fill:#000000;" d="M254.313,396.256l81.979,16.349c4.73-5.902,9.354-12.117,13.756-18.566l-95.735-19.097 l-95.688,19.144c4.403,6.465,9.025,12.664,13.757,18.566L254.313,396.256z"/> <path style="fill:#000000;" d="M508.603,182.643c-16.13-16.068-164.129,7.323-252.76,7.323s-236.629-23.391-252.76-7.323 c-16.536,16.505,28.685,113.739,252.76,113.739S525.14,199.148,508.603,182.643z"/> </g> <path style="fill:#000000;" d="M305.671,40.937c-23.97,4.575-43.348,37.07-49.828,37.07s-25.858-32.495-49.827-37.07 c-30.262-5.762-88.756,180.868-88.756,180.868s63.116,21.361,138.583,21.361s138.584-21.361,138.584-21.361 S335.933,35.175,305.671,40.937z"/> <path style="fill:#204a87;" d="M255.843,221.852c-61.32,0-114.474-14.116-132.259-19.394c-3.982,11.883-6.324,19.347-6.324,19.347 s63.116,21.361,138.583,21.361s138.584-21.361,138.584-21.361s-2.343-7.464-6.324-19.347 C370.317,207.736,317.163,221.852,255.843,221.852z"/> <g style="opacity:0.1;"> <path style="fill:#ef2929;" d="M206.016,62.267c23.969,4.56,43.347,37.054,49.827,37.054s25.858-32.495,49.828-37.054 c24.203-4.622,66.488,113.927,82.432,161.506c4.105-1.218,6.324-1.968,6.324-1.968s-58.494-186.63-88.756-180.868 c-23.97,4.575-43.348,37.07-49.828,37.07s-25.858-32.495-49.827-37.07c-30.262-5.762-88.756,180.868-88.756,180.868 s2.217,0.75,6.324,1.968C139.527,176.194,181.812,57.645,206.016,62.267z"/> </g> </g>
</svg>