<?xml version="1.0" encoding="UTF-8" standalone="no"?>
<!-- Uploaded to: SVG Repo, www.svgrepo.com, Transformed by: SVG Repo Mixer Tools -->

<svg
   xmlns:dc="http://purl.org/dc/elements/1.1/"
   xmlns:cc="http://creativecommons.org/ns#"
   xmlns:rdf="http://www.w3.org/1999/02/22-rdf-syntax-ns#"
   xmlns:svg="http://www.w3.org/2000/svg"
   xmlns="http://www.w3.org/2000/svg"
   xmlns:sodipodi="http://sodipodi.sourceforge.net/DTD/sodipodi-0.dtd"
   xmlns:inkscape="http://www.inkscape.org/namespaces/inkscape"
   version="1.1"
   id="Layer_1"
   viewBox="0 0 512 512"
   xml:space="preserve"
   width="800px"
   height="800px"
   fill="#000000"
   sodipodi:docname="well.svg"
   inkscape:version="0.92.5 (2060ec1f9f, 2020-04-08)"><metadata
   id="metadata62"><rdf:RDF><cc:Work
       rdf:about=""><dc:format>image/svg+xml</dc:format><dc:type
         rdf:resource="http://purl.org/dc/dcmitype/StillImage" /><dc:title></dc:title></cc:Work></rdf:RDF></metadata><defs
   id="defs60">              </defs><sodipodi:namedview
   pagecolor="#ffffff"
   bordercolor="#666666"
   borderopacity="1"
   objecttolerance="10"
   gridtolerance="10"
   guidetolerance="10"
   inkscape:pageopacity="0"
   inkscape:pageshadow="2"
   inkscape:window-width="2485"
   inkscape:window-height="1735"
   id="namedview58"
   showgrid="false"
   inkscape:zoom="0.834386"
   inkscape:cx="260.49025"
   inkscape:cy="599.97548"
   inkscape:window-x="120"
   inkscape:window-y="54"
   inkscape:window-maximized="0"
   inkscape:current-layer="Layer_1" />





<g
   id="g939"><g
     stroke-width="0"
     id="SVGRepo_bgCarrier" /><g
     stroke-linejoin="round"
     stroke-linecap="round"
     id="SVGRepo_tracerCarrier" /><path
     style="fill:#c17d11"
     d="m 84.081,167.302 c -4.662,0 -8.44,3.779 -8.44,8.44 v 42.481 H 64.974 c -4.662,0 -8.44,3.779 -8.44,8.44 0,4.661 3.778,8.44 8.44,8.44 h 19.107 c 4.662,0 8.44,-3.779 8.44,-8.44 V 184.182 H 389.708 V 167.303 H 84.081 Z"
     id="path4"
     inkscape:connector-curvature="0" /><g
     id="g10"> <polygon
   style="fill:#888a85"
   points="391.905,167.835 378.452,145.329 378.452,100.318 405.357,100.318 405.357,145.329 "
   id="polygon6" /> <polygon
   style="fill:#888a85"
   points="147.647,167.835 134.2,145.329 134.2,100.318 161.094,100.318 161.094,145.329 "
   id="polygon8" /> </g><g
     id="g16"> <rect
   x="378.452"
   y="145.32899"
   style="fill:#babdb6"
   width="26.905001"
   height="162.10699"
   id="rect12" /> <rect
   x="134.2"
   y="145.32899"
   style="fill:#babdb6"
   width="26.893999"
   height="162.10699"
   id="rect14" /> </g><path
     style="fill:#4d3d36"
     d="m 320.41,327.124 c -4.662,0 -8.44,-3.779 -8.44,-8.44 V 164.29 c 0,-4.661 3.778,-8.44 8.44,-8.44 4.662,0 8.44,3.779 8.44,8.44 v 154.394 c 0,4.661 -3.778,8.44 -8.44,8.44 z"
     id="path18"
     inkscape:connector-curvature="0" /><polygon
     style="fill:#9b3d22;fill-opacity:1"
     points="421.707,111.571 364.466,55.785 395.398,0 429.157,0 455.466,111.571 "
     id="polygon20" /><polygon
     style="fill:#a25c34;fill-opacity:1"
     points="84.08,111.571 110.389,0 395.398,0 421.707,111.571 "
     id="polygon22" /><polygon
     style="fill:#888a85"
     points="373.849,512 407.608,512 407.608,340.362 131.949,340.362 131.949,385.373 "
     id="polygon30" /><rect
     x="131.94901"
     y="385.37299"
     style="fill:#babdb6"
     width="241.89999"
     height="126.627"
     id="rect32" /><polygon
     style="fill:#8f5902"
     points="385.507,351.615 363.002,323.899 385.507,296.184 419.266,296.184 419.266,351.615 "
     id="polygon34" /><rect
     x="120.28"
     y="296.18399"
     style="fill:#c17d11"
     width="265.22699"
     height="55.431"
     id="rect36" /><g
     id="g46"> <path
   style="fill:#4d3d36"
   d="m 269.773,195.634 c -4.662,0 -8.44,-3.779 -8.44,-8.44 V 164.29 c 0,-4.661 3.778,-8.44 8.44,-8.44 4.662,0 8.44,3.779 8.44,8.44 v 22.904 c -0.001,4.661 -3.778,8.44 -8.44,8.44 z"
   id="path38"
   inkscape:connector-curvature="0" /> <path
   style="fill:#4d3d36"
   d="m 295.091,195.634 c -4.662,0 -8.44,-3.779 -8.44,-8.44 V 164.29 c 0,-4.661 3.778,-8.44 8.44,-8.44 4.662,0 8.44,3.779 8.44,8.44 v 22.904 c 0,4.661 -3.777,8.44 -8.44,8.44 z"
   id="path40"
   inkscape:connector-curvature="0" /> <path
   style="fill:#4d3d36"
   d="m 244.454,195.634 c -4.662,0 -8.44,-3.779 -8.44,-8.44 V 164.29 c 0,-4.661 3.778,-8.44 8.44,-8.44 4.662,0 8.44,3.779 8.44,8.44 v 22.904 c 0,4.661 -3.778,8.44 -8.44,8.44 z"
   id="path42"
   inkscape:connector-curvature="0" /> <path
   style="fill:#4d3d36"
   d="m 219.135,195.634 c -4.662,0 -8.44,-3.779 -8.44,-8.44 V 164.29 c 0,-4.661 3.778,-8.44 8.44,-8.44 4.662,0 8.44,3.779 8.44,8.44 v 22.904 c 0,4.661 -3.778,8.44 -8.44,8.44 z"
   id="path44"
   inkscape:connector-curvature="0" /> </g><g
     id="g54"> <circle
   style="fill:#888a85"
   cx="200.86099"
   cy="465.57101"
   r="8.4399996"
   id="circle48" /> <circle
   style="fill:#888a85"
   cx="327.45401"
   cy="431.81299"
   r="8.4399996"
   id="circle50" /> <circle
   style="fill:#888a85"
   cx="178.355"
   cy="431.81299"
   r="8.4399996"
   id="circle52" /> </g></g>

</svg>